<svg xmlns="http://www.w3.org/2000/svg" viewBox="0 0 1024 1024" role="img" aria-label="Upright app icon">
  <rect width="1024" height="1024" rx="224" fill="#2c7f89"/>
  <circle cx="512" cy="318" r="92" fill="#ffffff"/>
  <path fill="#ffffff" d="M851 518c-7-4-142-84-339-84s-332 80-339 84c-35 21-46 66-25 101 20 34 65 45 99 25 1-1 90-51 217-61v112L299 881c-28 31-25 78 6 106 31 27 78 25 106-6l101-114 101 114c28 31 75 33 106 6 31-28 34-75 6-106L560 695V583c126 10 216 60 217 61 34 20 79 9 99-25 21-35 10-80-25-101Z"/>
</svg>
